HIERARCHY
ROOT Hips
{
 OFFSET 0.000000 0.000000 0.000000
 CHANNELS 6 Xposition Yposition Zposition Yrotation Xrotation Zrotation
 JOINT Chest
 {
  OFFSET 0.000000 9.585900 0.002600
  CHANNELS 3 Yrotation Xrotation Zrotation
  JOINT Chest2
  {
   OFFSET 0.000000 9.601200 -0.005300
   CHANNELS 3 Yrotation Xrotation Zrotation
   JOINT Chest3
   {
    OFFSET 0.000000 9.561800 0.000000
    CHANNELS 3 Yrotation Xrotation Zrotation
    JOINT Chest4
    {
     OFFSET 0.000000 9.552100 0.000000
     CHANNELS 3 Yrotation Xrotation Zrotation
     JOINT Neck
     {
      OFFSET 0.000000 14.453000 0.000000
      CHANNELS 3 Yrotation Xrotation Zrotation
      JOINT Head
      {
       OFFSET 0.000000 8.936500 -0.011300
       CHANNELS 3 Yrotation Xrotation Zrotation
       End Site
       {
        OFFSET 0.000000 17.073600 -0.006000
       }
      }
     }
     JOINT RightCollar
     {
      OFFSET -2.921100 9.558500 0.000000
      CHANNELS 3 Yrotation Xrotation Zrotation
      JOINT RightShoulder
      {
       OFFSET -13.519700 0.000000 0.000000
       CHANNELS 3 Yrotation Xrotation Zrotation
       JOINT RightElbow
       {
        OFFSET 0.000000 -29.696600 0.000000
        CHANNELS 3 Yrotation Xrotation Zrotation
        JOINT RightWrist
        {
         OFFSET 0.000000 -24.004700 0.000000
         CHANNELS 3 Yrotation Xrotation Zrotation
         End Site
         {
          OFFSET 0.000000 -17.728500 0.000000
         }
        }
       }
      }
     }
     JOINT LeftCollar
     {
      OFFSET 2.921100 9.558500 0.000000
      CHANNELS 3 Yrotation Xrotation Zrotation
      JOINT LeftShoulder
      {
       OFFSET 13.519700 0.000000 0.000000
       CHANNELS 3 Yrotation Xrotation Zrotation
       JOINT LeftElbow
       {
        OFFSET 0.000000 -29.696600 0.000000
        CHANNELS 3 Yrotation Xrotation Zrotation
        JOINT LeftWrist
        {
         OFFSET 0.000000 -24.004700 0.000000
         CHANNELS 3 Yrotation Xrotation Zrotation
         End Site
         {
          OFFSET 0.000000 -17.728500 0.000000
         }
        }
       }
      }
     }
    }
   }
  }
 }
 JOINT RightHip
 {
  OFFSET -7.771700 -0.012900 -0.001300
  CHANNELS 3 Yrotation Xrotation Zrotation
  JOINT RightKnee
  {
   OFFSET 0.000000 -40.869800 0.001200
   CHANNELS 3 Yrotation Xrotation Zrotation
   JOINT RightAnkle
   {
    OFFSET 0.000000 -39.717900 0.002100
    CHANNELS 3 Yrotation Xrotation Zrotation
    JOINT RightToe
    {
     OFFSET 0.000000 -4.965400 11.033500
     CHANNELS 3 Yrotation Xrotation Zrotation
     End Site
     {
      OFFSET 0.000000 -1.423100 5.872300
     }
    }
   }
  }
 }
 JOINT LeftHip
 {
  OFFSET 7.771700 -0.012900 -0.001300
  CHANNELS 3 Yrotation Xrotation Zrotation
  JOINT LeftKnee
  {
   OFFSET 0.000000 -40.869800 0.001200
   CHANNELS 3 Yrotation Xrotation Zrotation
   JOINT LeftAnkle
   {
    OFFSET 0.000000 -39.717900 0.002100
    CHANNELS 3 Yrotation Xrotation Zrotation
    JOINT LeftToe
    {
     OFFSET 0.000000 -4.965400 11.033500
     CHANNELS 3 Yrotation Xrotation Zrotation
     End Site
     {
      OFFSET 0.000000 -1.423100 5.872300
     }
    }
   }
  }
 }
}
MOTION
Frames: 11
Frame Time: 0.008333
0.000000 85.388000 0.000000 0.000000 -5.767877 0.000000 0.000000 11.653817 0.000000 0.000000 -5.885947 0.000000 0.000000 -0.000000 0.000000 0.000000 -0.000000 0.000000 0.000000 12.528835 0.000000 0.000000 0.711642 0.000000 0.000000 -0.000000 0.000000 0.000000 0.000000 -90.000000 0.000000 -2.309062 0.000000 0.000000 2.309062 0.000000 0.000000 -0.000000 0.000000 0.000000 -0.000000 90.000000 0.000000 -2.309062 0.000000 0.000000 2.309062 0.000000 0.000000 8.520406 0.000000 0.000000 1.905762 0.000000 -0.000000 -4.658285 0.000000 0.000000 -0.000000 0.000000 0.000000 8.520406 0.000000 0.000000 1.905762 0.000000 -0.000000 -4.658285 0.000000 0.000000 -0.000000 0.000000
-54.769495 55.133389 48.221319 -178.797132 -31.586508 -10.443620 0.001561 13.611469 5.724367 -0.179480 7.753281 2.234857 -0.192564 9.666304 2.779825 -0.156718 7.809523 2.259188 6.148027 16.461107 -4.328145 7.727872 -8.094098 -6.164442 0.056148 1.231647 -2.864092 -16.263459 -5.215800 7.081763 14.807931 -75.716023 -0.550974 10.121629 -12.544055 -14.003352 -9.576705 3.405866 -3.692291 6.417169 -6.304726 -1.715738 -58.279980 -80.989858 63.494850 21.400965 -20.259294 -17.492660 -17.812297 -35.292559 4.802261 1.743473 87.322604 -1.106292 2.054327 -17.449585 0.910426 -0.034672 0.443925 -0.022096 -14.558391 -46.494947 15.672250 167.879518 80.030497 162.651757 -1.912582 -15.107313 2.079893 -0.983987 -2.512612 -0.432481
-54.771001 55.136134 48.223056 -178.802856 -31.588234 -10.446143 0.014228 13.633569 5.737916 -0.181289 7.738707 2.232214 -0.162026 9.742886 2.818765 -0.166640 7.790891 2.253614 6.117058 16.351528 -4.478135 7.734092 -8.208324 -6.325370 0.025966 1.213068 -2.855138 -16.243407 -5.242887 7.054693 15.333409 -75.735911 -1.044078 10.129790 -12.546978 -14.001717 -9.642221 3.392545 -3.655392 6.306908 -6.593551 -1.748138 -56.201925 -80.800103 61.620840 21.450602 -20.420319 -16.821838 -17.814976 -35.291858 4.809330 1.698113 87.322151 -1.149492 2.061824 -17.449593 0.905969 -0.024018 0.444281 -0.023186 -14.553978 -46.495981 15.675325 167.864267 80.027855 162.637873 -1.917519 -15.107693 2.082561 -0.982135 -2.512816 -0.432503
-54.771252 55.139140 48.225262 -178.802654 -31.587261 -10.462422 0.023804 13.650246 5.761238 -0.177819 7.756633 2.241223 -0.167151 9.719917 2.811568 -0.148600 7.851920 2.281787 6.072661 16.218705 -4.641315 7.729014 -8.348159 -6.497982 -0.003424 1.182810 -2.853333 -16.230281 -5.285264 7.034354 15.949896 -75.725756 -1.622999 10.137828 -12.557536 -14.017629 -9.702463 3.378161 -3.633262 6.178546 -6.880775 -1.762265 -54.001655 -80.633748 59.627909 21.480119 -20.571298 -16.076230 -17.827787 -35.289402 4.826395 1.747884 87.319310 -1.101834 2.106042 -17.443939 0.893882 -0.072458 0.440192 -0.021834 -14.558697 -46.501663 15.688076 167.849598 80.021933 162.633258 -1.919597 -15.104862 2.080791 -0.983197 -2.516266 -0.430429
-54.773018 55.142024 48.227103 -178.800918 -31.587422 -10.473152 0.030189 13.674790 5.780871 -0.163845 7.813406 2.267495 -0.166234 9.697317 2.807756 -0.155387 7.870638 2.290771 6.015834 16.069455 -4.809928 7.711724 -8.506326 -6.673859 -0.020534 1.126554 -2.868598 -16.214414 -5.268305 7.015790 16.529324 -75.747709 -2.179300 10.180168 -12.584196 -14.061287 -9.754051 3.366228 -3.621741 6.036737 -7.158116 -1.761219 -51.623541 -80.522525 57.448440 21.512788 -20.695055 -15.284157 -17.835256 -35.287935 4.846055 1.594295 87.320899 -1.249514 2.072334 -17.441487 0.902011 -0.048220 0.438904 -0.024511 -14.546830 -46.512471 15.679206 167.809233 80.012919 162.611604 -1.915674 -15.093989 2.076572 -0.987600 -2.528155 -0.428118
-54.775311 55.144991 48.228059 -178.800474 -31.592196 -10.482704 0.034936 13.710501 5.801054 -0.165122 7.824662 2.273110 -0.158106 9.765144 2.838197 -0.164641 7.840872 2.279399 5.947951 15.910727 -4.979880 7.682537 -8.675189 -6.848839 -0.023071 1.069112 -2.884962 -16.208745 -5.213839 7.007236 17.271575 -75.793655 -2.891615 10.226951 -12.642822 -14.144445 -9.797383 3.360860 -3.615006 5.895806 -7.419442 -1.749558 -48.901040 -80.510475 54.902857 21.543906 -20.780633 -14.477774 -17.839594 -35.283381 4.848195 1.732765 87.322672 -1.118111 2.142303 -17.439134 0.893652 -0.046541 0.437090 -0.028384 -14.545426 -46.512235 15.681003 167.796498 80.007309 162.604749 -1.920029 -15.095312 2.075046 -0.984506 -2.529463 -0.425559
-54.777084 55.148298 48.227764 -178.797771 -31.603331 -10.499437 0.030901 13.747551 5.822390 -0.169238 7.841664 2.279662 -0.162560 9.802556 2.852631 -0.169262 7.841620 2.279701 5.871437 15.749386 -5.147815 7.643275 -8.847281 -7.019772 -0.019814 1.088416 -2.846009 -16.183873 -5.277118 6.967593 18.026069 -75.802140 -3.630979 10.274105 -12.739950 -14.264094 -9.833359 3.360721 -3.616278 5.768019 -7.651777 -1.725079 -45.725511 -80.623690 51.884392 21.555525 -20.817982 -13.682627 -17.847265 -35.268440 4.851171 1.983943 87.320705 -0.881094 2.248264 -17.438316 0.874356 -0.044241 0.436245 -0.026010 -14.556337 -46.502498 15.696201 167.777854 79.997671 162.583927 -1.924443 -15.098743 2.077742 -0.984888 -2.531358 -0.426039
-54.780770 55.150302 48.227805 -178.800358 -31.608795 -10.504551 0.019722 13.777125 5.831763 -0.176431 7.857889 2.284622 -0.152623 9.794947 2.849046 -0.194544 7.884815 2.297505 5.788106 15.590910 -5.310424 7.595021 -9.016653 -7.183263 0.004526 1.068148 -2.845861 -16.157181 -5.301176 6.960477 18.768838 -75.779457 -4.370323 10.320295 -12.878756 -14.416078 -9.865951 3.365618 -3.624646 5.664720 -7.845259 -1.690286 -42.143623 -80.843061 48.448570 21.550278 -20.799639 -12.909743 -17.845615 -35.264260 4.861912 1.802442 87.325857 -1.063032 2.235061 -17.441789 0.882255 -0.023921 0.438781 -0.026224 -14.546869 -46.502165 15.690942 167.783484 79.992185 162.594057 -1.921695 -15.105477 2.076855 -0.982548 -2.528990 -0.423786
-54.785214 55.151545 48.227586 -178.802735 -31.612352 -10.508278 0.003908 13.802657 5.836892 -0.185444 7.872161 2.288050 -0.172639 9.827774 2.858146 -0.194959 7.884707 2.294415 5.698147 15.440717 -5.465659 7.537308 -9.177516 -7.336803 0.033662 1.056141 -2.844984 -16.116769 -5.326552 6.960976 19.470889 -75.733499 -5.082560 10.363012 -13.052264 -14.596219 -9.902943 3.376676 -3.636769 5.594587 -7.996875 -1.650919 -38.267134 -81.119342 44.709925 21.534105 -20.733133 -12.151375 -17.833195 -35.263696 4.871567 1.588089 87.328396 -1.267916 2.177378 -17.444861 0.900864 -0.004310 0.440265 -0.027254 -14.541725 -46.506665 15.683396 167.769000 79.982365 162.582989 -1.914230 -15.104478 2.075065 -0.985629 -2.534484 -0.423360
-54.789866 55.152038 48.227224 -178.804075 -31.613213 -10.514518 -0.014128 13.823207 5.839885 -0.195880 7.884125 2.289541 -0.182314 9.846474 2.864789 -0.209045 7.892917 2.291501 5.603733 15.301184 -5.611991 7.472156 -9.327234 -7.479220 0.064769 1.053781 -2.838917 -16.079262 -5.367737 6.954845 20.056714 -75.656395 -5.676208 10.398271 -13.238619 -14.793641 -9.946235 3.392225 -3.651128 5.562640 -8.106308 -1.610754 -34.208805 -81.410496 40.778022 21.500300 -20.632467 -11.402130 -17.827954 -35.265602 4.881357 1.502654 87.336548 -1.345690 2.131400 -17.447137 0.914088 -0.045275 0.439540 -0.026081 -14.544293 -46.513782 15.681890 167.739243 79.969812 162.555494 -1.914220 -15.102806 2.076562 -0.992234 -2.542313 -0.428454
-54.794989 55.152004 48.226256 -178.803134 -31.614219 -10.522255 -0.034503 13.841782 5.838123 -0.199052 7.889034 2.291536 -0.166797 9.837936 2.865469 -0.244156 7.918625 2.295414 5.490676 15.179634 -5.746158 7.400324 -9.467246 -7.610966 0.080204 1.066135 -2.824374 -16.000508 -5.388467 6.974408 20.648953 -75.577471 -6.320729 10.426756 -13.413427 -14.994779 -10.007188 3.417469 -3.667457 5.562981 -8.175688 -1.573622 -30.079557 -81.692691 36.763255 21.449359 -20.508308 -10.681906 -17.829388 -35.266065 4.898134 1.214303 87.342424 -1.628472 2.063265 -17.450647 0.932322 -0.029758 0.439661 -0.023881 -14.549498 -46.519370 15.681222 167.747258 79.959866 162.564347 -1.910658 -15.106684 2.078701 -0.992860 -2.543643 -0.430026
